<?xml version="1.0" encoding="UTF-8" standalone="no"?>
<svg
   xmlns:dc="http://purl.org/dc/elements/1.1/"
   xmlns:cc="http://creativecommons.org/ns#"
   xmlns:rdf="http://www.w3.org/1999/02/22-rdf-syntax-ns#"
   xmlns:svg="http://www.w3.org/2000/svg"
   xmlns="http://www.w3.org/2000/svg"
   xmlns:sodipodi="http://sodipodi.sourceforge.net/DTD/sodipodi-0.dtd"
   xmlns:inkscape="http://www.inkscape.org/namespaces/inkscape"
   enable-background="new 0 0 122.88 92.93"
   version="1.1"
   viewBox="0 0 122.88 92.93"
   xml:space="preserve"
   id="svg6"
   sodipodi:docname="app-fish1.svg"
   inkscape:version="1.0.2 (e86c870879, 2021-01-15)"><metadata
     id="metadata12"><rdf:RDF><cc:Work
         rdf:about=""><dc:format>image/svg+xml</dc:format><dc:type
           rdf:resource="http://purl.org/dc/dcmitype/StillImage" /></cc:Work></rdf:RDF></metadata><defs
     id="defs10" /><sodipodi:namedview
     pagecolor="#ffffff"
     bordercolor="#666666"
     borderopacity="1"
     objecttolerance="10"
     gridtolerance="10"
     guidetolerance="10"
     inkscape:pageopacity="0"
     inkscape:pageshadow="2"
     inkscape:window-width="1920"
     inkscape:window-height="993"
     id="namedview8"
     showgrid="false"
     inkscape:zoom="4.2989347"
     inkscape:cx="44.249304"
     inkscape:cy="44.760972"
     inkscape:window-x="0"
     inkscape:window-y="31"
     inkscape:window-maximized="1"
     inkscape:current-layer="svg6" /><style
     type="text/css"
     id="style2">.st0{fill-rule:evenodd;clip-rule:evenodd;}</style><path
     class="st0"
     d="m111.37 14.43 9.02-9.3c-12.55-9.5-40.39-4.49-52.39 4.35-5.89-1.75-11.69-1.9-17.65-1.64-14.32 0.62-2.32 12.44 2.26 17.11-3.83 6.2-7.33 12.61-10.66 19.14-2.54 6.93-7.88 9.58-15.54 8.69l-8.46-1.68c-4.48-0.89-20.38-5.47-17.63 3.8 2.75 6 9.51 11.25 16.66 16.42 0.62 4.09 1.62 8.29 2.79 12.53 3.35 12.11 8.53 11.89 12.05 0.68l4.85-15.43c1.5-5.51 4.62-7.99 8.67-8.34 12.37-1.06 22.61 3.33 39.22-1.85 0.75 4.33 1.97 8.57 3.55 12.73 1.74 3.05 4.22 3.35 7.79-0.41 3.57-6.02 5.85-12.8 7.03-20.25 12.37-12.82 21.08-30.79 19.83-41.37l-11.39 4.82zm-10.09-8.84c-2.54-0.68-5.16 0.83-5.84 3.37s0.83 5.16 3.37 5.84 5.15-0.83 5.84-3.37c0.68-2.55-0.83-5.16-3.37-5.84z"
     fill="#ddd"
     id="path4"
     style="fill:#3fef00;fill-opacity:1" /></svg>
