<?xml version="1.0" encoding="UTF-8" standalone="no"?>
<svg
   xmlns:dc="http://purl.org/dc/elements/1.1/"
   xmlns:cc="http://creativecommons.org/ns#"
   xmlns:rdf="http://www.w3.org/1999/02/22-rdf-syntax-ns#"
   xmlns:svg="http://www.w3.org/2000/svg"
   xmlns="http://www.w3.org/2000/svg"
   xmlns:sodipodi="http://sodipodi.sourceforge.net/DTD/sodipodi-0.dtd"
   xmlns:inkscape="http://www.inkscape.org/namespaces/inkscape"
   width="52.753mm"
   height="89.111mm"
   version="1.1"
   viewBox="0 0 52.753 89.111"
   id="svg8"
   sodipodi:docname="occupied_cat.svg"
   inkscape:version="1.0.1 (3bc2e813f5, 2020-09-07)">
  <metadata
     id="metadata14">
    <rdf:RDF>
      <cc:Work
         rdf:about="">
        <dc:format>image/svg+xml</dc:format>
        <dc:type
           rdf:resource="http://purl.org/dc/dcmitype/StillImage" />
      </cc:Work>
    </rdf:RDF>
  </metadata>
  <defs
     id="defs12" />
  <sodipodi:namedview
     pagecolor="#ffffff"
     bordercolor="#666666"
     borderopacity="1"
     objecttolerance="10"
     gridtolerance="10"
     guidetolerance="10"
     inkscape:pageopacity="0"
     inkscape:pageshadow="2"
     inkscape:window-width="1920"
     inkscape:window-height="993"
     id="namedview10"
     showgrid="false"
     inkscape:zoom="1.6775016"
     inkscape:cx="57.350138"
     inkscape:cy="143.69272"
     inkscape:window-x="0"
     inkscape:window-y="31"
     inkscape:window-maximized="1"
     inkscape:current-layer="g6"
     inkscape:document-rotation="0" />
  <g
     transform="translate(-73.244 -118.61)"
     stroke="#000"
     stroke-width=".26458px"
     id="g6">
    <path
       d="m110.01 191.35c6.1739 6.2278 1.441 12.418-2.7172 14.704-18.037 7.5824-13.926-15.441-14.419-15.467-22.701-1.1898-19.521-28.406-15.828-38.883-3.4856-3.1862-4.5257-9.6571-2.9453-15.789 2.2736-8.822 9.4643-16.824 11.314-17.174 0.76062-0.14385 4.8978 9.2646 4.8978 9.2646 10.941-2.174 20.389 1.206 20.389 1.206s1.73-6.5544 5.0471-8.3618c0.20577-0.39079 6.4136 6.6414 9.3135 16.586 1.9204 6.5854 0.35658 13.856-4.2453 16.775 6.3448 25.9-3.2795 36.177-21.875 36.626-2.4929 0.0601-1.2715 13.828 4.1121 10.699 4.392-2.5527 1.8478-12.664 6.9564-10.186z"
       fill="#1a1a1a"
       id="path2"
       style="stroke:none;stroke-opacity:1;stroke-width:0.26458334;stroke-miterlimit:4;stroke-dasharray:none;fill:#313131;fill-opacity:1" />
    <path
       d="m120.81 154.21c-25.866 9.552-43.74-2.6567-43.771-2.5073-0.06078-0.41488 17.88 16.727 43.771 2.5073z"
       id="path4" />
  </g>
</svg>
