<?xml version="1.0" encoding="UTF-8" standalone="no"?>
<svg
   xmlns:dc="http://purl.org/dc/elements/1.1/"
   xmlns:cc="http://creativecommons.org/ns#"
   xmlns:rdf="http://www.w3.org/1999/02/22-rdf-syntax-ns#"
   xmlns:svg="http://www.w3.org/2000/svg"
   xmlns="http://www.w3.org/2000/svg"
   xmlns:sodipodi="http://sodipodi.sourceforge.net/DTD/sodipodi-0.dtd"
   xmlns:inkscape="http://www.inkscape.org/namespaces/inkscape"
   width="52.753mm"
   height="89.111mm"
   version="1.1"
   viewBox="0 0 52.753 89.111"
   id="svg8"
   sodipodi:docname="select_cat1.svg"
   inkscape:version="1.0.1 (3bc2e813f5, 2020-09-07)">
  <metadata
     id="metadata14">
    <rdf:RDF>
      <cc:Work
         rdf:about="">
        <dc:format>image/svg+xml</dc:format>
        <dc:type
           rdf:resource="http://purl.org/dc/dcmitype/StillImage" />
        <dc:title></dc:title>
      </cc:Work>
    </rdf:RDF>
  </metadata>
  <defs
     id="defs12" />
  <sodipodi:namedview
     pagecolor="#ffffff"
     bordercolor="#666666"
     borderopacity="1"
     objecttolerance="10"
     gridtolerance="10"
     guidetolerance="10"
     inkscape:pageopacity="0"
     inkscape:pageshadow="2"
     inkscape:window-width="1920"
     inkscape:window-height="993"
     id="namedview10"
     showgrid="false"
     inkscape:zoom="2.3723455"
     inkscape:cx="6.16285"
     inkscape:cy="242.72568"
     inkscape:window-x="0"
     inkscape:window-y="31"
     inkscape:window-maximized="1"
     inkscape:current-layer="g6" />
  <g
     transform="translate(-73.244 -118.61)"
     stroke="#000"
     stroke-width=".26458px"
     id="g6"
     style="fill:#808000">
    <path
       d="m110.01 191.35c6.1739 6.2278 1.441 12.418-2.7172 14.704-18.037 7.5824-13.926-15.441-14.419-15.467-22.701-1.1898-19.521-28.406-15.828-38.883-3.4856-3.1862-4.5257-9.6571-2.9453-15.789 2.2736-8.822 9.4643-16.824 11.314-17.174 0.76062-0.14385 4.8978 9.2646 4.8978 9.2646 10.941-2.174 20.389 1.206 20.389 1.206s1.73-6.5544 5.0471-8.3618c0.20577-0.39079 6.4136 6.6414 9.3135 16.586 1.9204 6.5854 0.35658 13.856-4.2453 16.775 6.3448 25.9-3.2795 36.177-21.875 36.626-2.4929 0.0601-1.2715 13.828 4.1121 10.699 4.392-2.5527 1.8478-12.664 6.9564-10.186z"
       fill="#1a1a1a"
       id="path2"
       style="fill:#f19100;fill-opacity:1;opacity:1;stroke-linejoin:bevel;stroke:none;stroke-opacity:1" />
    <path
       d="m120.81 154.21c-25.866 9.552-43.74-2.6567-43.771-2.5073-0.06078-0.41488 17.88 16.727 43.771 2.5073z"
       id="path4"
       style="fill:#784200;stroke:none;fill-opacity:1" />
    <path
       style="fill:#ce7700;fill-opacity:1;stroke:none;stroke-width:0.264583px;stroke-linecap:butt;stroke-linejoin:miter;stroke-opacity:1"
       d="m 122.70394,166.8739 c 0,0 -2.31716,1.34313 -6.02499,2.5047 -0.6465,0.20253 -1.32978,0.29107 -2.01009,0.46877 -5.23205,1.36661 -10.87673,1.92615 -7.9011,0.56202 2.62848,-1.20498 6.05319,-2.87779 8.66827,-4.69264 3.84293,-2.66697 6.59777,-5.37771 6.59777,-5.37771 l 0.46573,3.21555 z"
       id="path839"
       sodipodi:nodetypes="cssssccc" />
    <path
       style="fill:#ce7700;fill-opacity:1;stroke:none;stroke-width:0.264583px;stroke-linecap:butt;stroke-linejoin:miter;stroke-opacity:1"
       d="m 121.00559,178.59169 c 0,0 -2.4373,1.26184 -6.14513,2.42341 -0.6465,0.20253 -1.31984,0.39387 -2.00015,0.57157 -5.23205,1.36661 -10.15494,0.91314 -9.60801,0.77274 2.02234,-0.31534 8.15743,-2.43009 11.40113,-3.93791 4.24181,-1.97177 7.90175,-6.11362 7.90175,-6.11362 l -0.51424,3.10044 z"
       id="path839-3"
       sodipodi:nodetypes="csscsccc" />
    <path
       style="fill:#ce7700;fill-opacity:1;stroke:none;stroke-width:0.264583px;stroke-linecap:butt;stroke-linejoin:miter;stroke-opacity:1"
       d="m 74.574772,167.36758 c 0,0 2.39292,1.45262 6.10075,2.61419 0.6465,0.20253 1.31984,0.39387 2.00015,0.57157 5.23205,1.36661 10.87673,1.92615 7.9011,0.56202 -2.62848,-1.20498 -6.05319,-2.87779 -8.66827,-4.69264 -3.84293,-2.66697 -6.944164,-5.36217 -6.944164,-5.36217 l -0.3008,3.01677 z"
       id="path839-6"
       sodipodi:nodetypes="cssssccc" />
    <path
       style="fill:#ce7700;fill-opacity:1;stroke:none;stroke-width:0.264583px;stroke-linecap:butt;stroke-linejoin:miter;stroke-opacity:1"
       d="m 76.525461,179.25434 c 0,0 2.393043,1.37666 6.100873,2.53823 0.6465,0.20253 1.31984,0.39387 2.00015,0.57157 5.23205,1.36661 10.439,0.58352 9.696564,0.59834 -3.771323,-1.34971 -7.790595,-2.42616 -11.034295,-3.93398 -4.24181,-1.97177 -8.438522,-6.22538 -8.438522,-6.22538 l 0.28723,1.92149 c 0.393148,1.63388 0.819781,2.95549 1.388,4.52973 z"
       id="path839-3-7"
       sodipodi:nodetypes="csscsccc" />
  </g>
</svg>
